<mxfile host="app.diagrams.net" modified="2020-11-13T10:45:31.152Z" agent="5.0 (Windows NT 10.0; Win64; x64) AppleWebKit/537.36 (KHTML, like Gecko) Chrome/86.0.4240.193 Safari/537.36" etag="1UVqSVZlS30WKrhR3c2w" version="13.9.6" type="github">
  <diagram id="6a731a19-8d31-9384-78a2-239565b7b9f0" name="Page-1">
    <mxGraphModel dx="2459" dy="912" grid="0" gridSize="10" guides="1" tooltips="1" connect="1" arrows="1" fold="1" page="1" pageScale="1" pageWidth="1169" pageHeight="827" background="#ffffff" math="0" shadow="0">
      <root>
        <mxCell id="0" />
        <mxCell id="1" parent="0" />
        <mxCell id="VSI3icmYJTKuLkTzz5mK-1" value="" style="group;fontSize=29;" parent="1" vertex="1" connectable="0">
          <mxGeometry x="-964" y="47" width="1903" height="560" as="geometry" />
        </mxCell>
        <mxCell id="fU0B5mbKIqQJxSJaI-YO-143" value="" style="ellipse;whiteSpace=wrap;html=1;aspect=fixed;fillColor=#1ba1e2;strokeColor=#006EAF;fontColor=#ffffff;fontSize=29;" parent="VSI3icmYJTKuLkTzz5mK-1" vertex="1">
          <mxGeometry x="941" y="100" width="80" height="80" as="geometry" />
        </mxCell>
        <mxCell id="fU0B5mbKIqQJxSJaI-YO-147" value="" style="ellipse;whiteSpace=wrap;html=1;aspect=fixed;fillColor=#1ba1e2;strokeColor=#006EAF;fontColor=#ffffff;fontSize=29;" parent="VSI3icmYJTKuLkTzz5mK-1" vertex="1">
          <mxGeometry x="1728" y="100" width="80" height="80" as="geometry" />
        </mxCell>
        <mxCell id="fU0B5mbKIqQJxSJaI-YO-269" style="edgeStyle=orthogonalEdgeStyle;rounded=1;jumpSize=1;orthogonalLoop=1;jettySize=auto;html=1;dashed=1;endArrow=block;endFill=1;endSize=6;strokeWidth=1;fontSize=29;" parent="VSI3icmYJTKuLkTzz5mK-1" source="fU0B5mbKIqQJxSJaI-YO-143" target="fU0B5mbKIqQJxSJaI-YO-147" edge="1">
          <mxGeometry relative="1" as="geometry" />
        </mxCell>
        <mxCell id="fU0B5mbKIqQJxSJaI-YO-262" style="edgeStyle=orthogonalEdgeStyle;rounded=1;jumpSize=1;orthogonalLoop=1;jettySize=auto;html=1;entryX=0.5;entryY=0;entryDx=0;entryDy=0;endArrow=block;endFill=1;endSize=6;strokeWidth=1;fontSize=29;" parent="VSI3icmYJTKuLkTzz5mK-1" source="fU0B5mbKIqQJxSJaI-YO-149" target="fU0B5mbKIqQJxSJaI-YO-143" edge="1">
          <mxGeometry relative="1" as="geometry" />
        </mxCell>
        <mxCell id="fU0B5mbKIqQJxSJaI-YO-149" value="&lt;h2 style=&quot;font-size: 33px;&quot;&gt;Edition 1.3&lt;/h2&gt;" style="text;html=1;strokeColor=none;fillColor=none;align=center;verticalAlign=middle;whiteSpace=wrap;rounded=0;fontSize=33;" parent="VSI3icmYJTKuLkTzz5mK-1" vertex="1">
          <mxGeometry x="789.75" y="3" width="382.5" height="51" as="geometry" />
        </mxCell>
        <mxCell id="fU0B5mbKIqQJxSJaI-YO-235" style="edgeStyle=orthogonalEdgeStyle;rounded=1;jumpSize=1;orthogonalLoop=1;jettySize=auto;html=1;endArrow=block;endFill=1;endSize=6;strokeWidth=1;fontSize=29;" parent="VSI3icmYJTKuLkTzz5mK-1" source="fU0B5mbKIqQJxSJaI-YO-151" target="fU0B5mbKIqQJxSJaI-YO-147" edge="1">
          <mxGeometry relative="1" as="geometry" />
        </mxCell>
        <mxCell id="fU0B5mbKIqQJxSJaI-YO-151" value="&lt;h2 style=&quot;font-size: 33px;&quot;&gt;Edition 1.4&lt;/h2&gt;" style="text;html=1;strokeColor=none;fillColor=none;align=center;verticalAlign=middle;whiteSpace=wrap;rounded=0;fontSize=33;" parent="VSI3icmYJTKuLkTzz5mK-1" vertex="1">
          <mxGeometry x="1657" y="-2" width="210" height="82" as="geometry" />
        </mxCell>
        <mxCell id="fU0B5mbKIqQJxSJaI-YO-157" value="merge branches in &lt;br style=&quot;font-size: 29px;&quot;&gt;projects" style="ellipse;whiteSpace=wrap;html=1;aspect=fixed;fillColor=#6a00ff;fontColor=#ffffff;strokeColor=#3700CC;fontSize=29;" parent="VSI3icmYJTKuLkTzz5mK-1" vertex="1">
          <mxGeometry x="903" y="295.75" width="160.5" height="160.5" as="geometry" />
        </mxCell>
        <mxCell id="fU0B5mbKIqQJxSJaI-YO-210" style="edgeStyle=orthogonalEdgeStyle;rounded=1;jumpSize=1;orthogonalLoop=1;jettySize=auto;html=1;entryX=1;entryY=0.5;entryDx=0;entryDy=0;dashed=1;endArrow=none;endFill=0;endSize=6;strokeWidth=1;fontSize=29;exitX=0;exitY=0.5;exitDx=0;exitDy=0;curved=1;" parent="VSI3icmYJTKuLkTzz5mK-1" source="fU0B5mbKIqQJxSJaI-YO-159" target="fU0B5mbKIqQJxSJaI-YO-143" edge="1">
          <mxGeometry relative="1" as="geometry" />
        </mxCell>
        <mxCell id="fU0B5mbKIqQJxSJaI-YO-159" value="CRxx" style="ellipse;whiteSpace=wrap;html=1;aspect=fixed;fillColor=#fa6800;fontColor=#ffffff;strokeColor=#C73500;fontSize=29;" parent="VSI3icmYJTKuLkTzz5mK-1" vertex="1">
          <mxGeometry x="1109" y="243" width="80" height="80" as="geometry" />
        </mxCell>
        <mxCell id="fU0B5mbKIqQJxSJaI-YO-191" value="CRxx" style="ellipse;whiteSpace=wrap;html=1;aspect=fixed;strokeColor=#C73500;fillColor=#fa6800;fontColor=#ffffff;fontSize=29;" parent="VSI3icmYJTKuLkTzz5mK-1" vertex="1">
          <mxGeometry x="1226" y="243" width="80" height="80" as="geometry" />
        </mxCell>
        <mxCell id="fU0B5mbKIqQJxSJaI-YO-196" style="edgeStyle=orthogonalEdgeStyle;rounded=1;jumpSize=1;orthogonalLoop=1;jettySize=auto;html=1;entryX=0;entryY=0.5;entryDx=0;entryDy=0;endArrow=none;endFill=0;endSize=6;strokeWidth=1;fontSize=29;fillColor=#fa6800;strokeColor=#C73500;" parent="VSI3icmYJTKuLkTzz5mK-1" source="fU0B5mbKIqQJxSJaI-YO-159" target="fU0B5mbKIqQJxSJaI-YO-191" edge="1">
          <mxGeometry relative="1" as="geometry" />
        </mxCell>
        <mxCell id="fU0B5mbKIqQJxSJaI-YO-192" value="CRxx" style="ellipse;whiteSpace=wrap;html=1;aspect=fixed;strokeColor=#C73500;fillColor=#fa6800;fontColor=#ffffff;fontSize=29;" parent="VSI3icmYJTKuLkTzz5mK-1" vertex="1">
          <mxGeometry x="1342" y="243" width="80" height="80" as="geometry" />
        </mxCell>
        <mxCell id="fU0B5mbKIqQJxSJaI-YO-197" style="edgeStyle=orthogonalEdgeStyle;rounded=1;jumpSize=1;orthogonalLoop=1;jettySize=auto;html=1;entryX=0;entryY=0.5;entryDx=0;entryDy=0;endArrow=none;endFill=0;endSize=6;strokeWidth=1;fontSize=29;fillColor=#fa6800;strokeColor=#C73500;" parent="VSI3icmYJTKuLkTzz5mK-1" source="fU0B5mbKIqQJxSJaI-YO-191" target="fU0B5mbKIqQJxSJaI-YO-192" edge="1">
          <mxGeometry relative="1" as="geometry" />
        </mxCell>
        <mxCell id="fU0B5mbKIqQJxSJaI-YO-193" value="CRxx" style="ellipse;whiteSpace=wrap;html=1;aspect=fixed;strokeColor=#C73500;fillColor=#fa6800;fontColor=#ffffff;fontSize=29;" parent="VSI3icmYJTKuLkTzz5mK-1" vertex="1">
          <mxGeometry x="1486" y="243" width="80" height="80" as="geometry" />
        </mxCell>
        <mxCell id="fU0B5mbKIqQJxSJaI-YO-198" style="edgeStyle=orthogonalEdgeStyle;rounded=1;jumpSize=1;orthogonalLoop=1;jettySize=auto;html=1;endArrow=none;endFill=0;endSize=6;strokeWidth=1;fontSize=29;fillColor=#fa6800;strokeColor=#C73500;" parent="VSI3icmYJTKuLkTzz5mK-1" source="fU0B5mbKIqQJxSJaI-YO-192" target="fU0B5mbKIqQJxSJaI-YO-193" edge="1">
          <mxGeometry relative="1" as="geometry" />
        </mxCell>
        <mxCell id="fU0B5mbKIqQJxSJaI-YO-232" style="edgeStyle=orthogonalEdgeStyle;rounded=1;jumpSize=1;orthogonalLoop=1;jettySize=auto;html=1;entryX=0;entryY=0.5;entryDx=0;entryDy=0;dashed=1;endArrow=none;endFill=0;endSize=6;strokeWidth=1;fontSize=29;" parent="VSI3icmYJTKuLkTzz5mK-1" source="fU0B5mbKIqQJxSJaI-YO-201" target="fU0B5mbKIqQJxSJaI-YO-147" edge="1">
          <mxGeometry relative="1" as="geometry" />
        </mxCell>
        <mxCell id="fU0B5mbKIqQJxSJaI-YO-201" value="merge&lt;br style=&quot;font-size: 29px;&quot;&gt;branches" style="ellipse;whiteSpace=wrap;html=1;aspect=fixed;fillColor=#6a00ff;fontColor=#ffffff;strokeColor=#3700CC;fontSize=29;" parent="VSI3icmYJTKuLkTzz5mK-1" vertex="1">
          <mxGeometry x="1603" y="308.25" width="135.5" height="135.5" as="geometry" />
        </mxCell>
        <mxCell id="fU0B5mbKIqQJxSJaI-YO-200" style="edgeStyle=orthogonalEdgeStyle;rounded=1;jumpSize=1;orthogonalLoop=1;jettySize=auto;html=1;dashed=1;endArrow=none;endFill=0;endSize=6;strokeWidth=1;fontSize=29;entryX=0;entryY=0.5;entryDx=0;entryDy=0;" parent="VSI3icmYJTKuLkTzz5mK-1" source="fU0B5mbKIqQJxSJaI-YO-193" target="fU0B5mbKIqQJxSJaI-YO-201" edge="1">
          <mxGeometry relative="1" as="geometry">
            <mxPoint x="1597" y="480" as="targetPoint" />
          </mxGeometry>
        </mxCell>
        <mxCell id="fU0B5mbKIqQJxSJaI-YO-211" value="CR41" style="ellipse;whiteSpace=wrap;html=1;aspect=fixed;strokeColor=#6F0000;fillColor=#a20025;fontColor=#ffffff;fontSize=29;" parent="VSI3icmYJTKuLkTzz5mK-1" vertex="1">
          <mxGeometry x="234" y="226" width="80" height="80" as="geometry" />
        </mxCell>
        <mxCell id="fU0B5mbKIqQJxSJaI-YO-212" value="CR42" style="ellipse;whiteSpace=wrap;html=1;aspect=fixed;strokeColor=#6F0000;fillColor=#a20025;fontColor=#ffffff;fontSize=29;" parent="VSI3icmYJTKuLkTzz5mK-1" vertex="1">
          <mxGeometry x="334" y="226" width="80" height="80" as="geometry" />
        </mxCell>
        <mxCell id="fU0B5mbKIqQJxSJaI-YO-217" style="edgeStyle=orthogonalEdgeStyle;rounded=1;jumpSize=1;orthogonalLoop=1;jettySize=auto;html=1;endArrow=none;endFill=0;endSize=6;strokeWidth=1;fontSize=29;fillColor=#a20025;strokeColor=#6F0000;" parent="VSI3icmYJTKuLkTzz5mK-1" source="fU0B5mbKIqQJxSJaI-YO-211" target="fU0B5mbKIqQJxSJaI-YO-212" edge="1">
          <mxGeometry relative="1" as="geometry" />
        </mxCell>
        <mxCell id="fU0B5mbKIqQJxSJaI-YO-213" value="CR43" style="ellipse;whiteSpace=wrap;html=1;aspect=fixed;strokeColor=#6F0000;fillColor=#a20025;fontColor=#ffffff;fontSize=29;" parent="VSI3icmYJTKuLkTzz5mK-1" vertex="1">
          <mxGeometry x="434" y="226" width="80" height="80" as="geometry" />
        </mxCell>
        <mxCell id="fU0B5mbKIqQJxSJaI-YO-218" style="edgeStyle=orthogonalEdgeStyle;rounded=1;jumpSize=1;orthogonalLoop=1;jettySize=auto;html=1;endArrow=none;endFill=0;endSize=6;strokeWidth=1;fontSize=29;fillColor=#a20025;strokeColor=#6F0000;" parent="VSI3icmYJTKuLkTzz5mK-1" source="fU0B5mbKIqQJxSJaI-YO-212" target="fU0B5mbKIqQJxSJaI-YO-213" edge="1">
          <mxGeometry relative="1" as="geometry" />
        </mxCell>
        <mxCell id="fU0B5mbKIqQJxSJaI-YO-214" value="CR44" style="ellipse;whiteSpace=wrap;html=1;aspect=fixed;strokeColor=#6F0000;fillColor=#a20025;fontColor=#ffffff;fontSize=29;" parent="VSI3icmYJTKuLkTzz5mK-1" vertex="1">
          <mxGeometry x="534" y="226" width="80" height="80" as="geometry" />
        </mxCell>
        <mxCell id="fU0B5mbKIqQJxSJaI-YO-219" style="edgeStyle=orthogonalEdgeStyle;rounded=1;jumpSize=1;orthogonalLoop=1;jettySize=auto;html=1;entryX=0;entryY=0.5;entryDx=0;entryDy=0;endArrow=none;endFill=0;endSize=6;strokeWidth=1;fontSize=29;fillColor=#a20025;strokeColor=#6F0000;" parent="VSI3icmYJTKuLkTzz5mK-1" source="fU0B5mbKIqQJxSJaI-YO-213" target="fU0B5mbKIqQJxSJaI-YO-214" edge="1">
          <mxGeometry relative="1" as="geometry" />
        </mxCell>
        <mxCell id="fU0B5mbKIqQJxSJaI-YO-215" value="CR45" style="ellipse;whiteSpace=wrap;html=1;aspect=fixed;strokeColor=#6F0000;fillColor=#a20025;fontColor=#ffffff;fontSize=29;" parent="VSI3icmYJTKuLkTzz5mK-1" vertex="1">
          <mxGeometry x="634" y="226" width="80" height="80" as="geometry" />
        </mxCell>
        <mxCell id="fU0B5mbKIqQJxSJaI-YO-220" style="edgeStyle=orthogonalEdgeStyle;rounded=1;jumpSize=1;orthogonalLoop=1;jettySize=auto;html=1;entryX=0;entryY=0.5;entryDx=0;entryDy=0;endArrow=none;endFill=0;endSize=6;strokeWidth=1;fontSize=29;fillColor=#a20025;strokeColor=#6F0000;" parent="VSI3icmYJTKuLkTzz5mK-1" source="fU0B5mbKIqQJxSJaI-YO-214" target="fU0B5mbKIqQJxSJaI-YO-215" edge="1">
          <mxGeometry relative="1" as="geometry" />
        </mxCell>
        <mxCell id="fU0B5mbKIqQJxSJaI-YO-247" style="edgeStyle=orthogonalEdgeStyle;rounded=1;jumpSize=1;orthogonalLoop=1;jettySize=auto;html=1;exitX=1;exitY=0.5;exitDx=0;exitDy=0;entryX=0;entryY=0.5;entryDx=0;entryDy=0;dashed=1;endArrow=none;endFill=0;endSize=6;strokeWidth=1;fontSize=29;" parent="VSI3icmYJTKuLkTzz5mK-1" source="fU0B5mbKIqQJxSJaI-YO-216" target="fU0B5mbKIqQJxSJaI-YO-157" edge="1">
          <mxGeometry relative="1" as="geometry" />
        </mxCell>
        <mxCell id="fU0B5mbKIqQJxSJaI-YO-216" value="CR46" style="ellipse;whiteSpace=wrap;html=1;aspect=fixed;strokeColor=#6F0000;fillColor=#a20025;fontColor=#ffffff;fontSize=29;" parent="VSI3icmYJTKuLkTzz5mK-1" vertex="1">
          <mxGeometry x="734" y="226" width="80" height="80" as="geometry" />
        </mxCell>
        <mxCell id="fU0B5mbKIqQJxSJaI-YO-221" style="edgeStyle=orthogonalEdgeStyle;rounded=1;jumpSize=1;orthogonalLoop=1;jettySize=auto;html=1;entryX=0;entryY=0.5;entryDx=0;entryDy=0;endArrow=none;endFill=0;endSize=6;strokeWidth=1;fontSize=29;fillColor=#a20025;strokeColor=#6F0000;" parent="VSI3icmYJTKuLkTzz5mK-1" source="fU0B5mbKIqQJxSJaI-YO-215" target="fU0B5mbKIqQJxSJaI-YO-216" edge="1">
          <mxGeometry relative="1" as="geometry" />
        </mxCell>
        <mxCell id="fU0B5mbKIqQJxSJaI-YO-222" value="CR47" style="ellipse;whiteSpace=wrap;html=1;aspect=fixed;strokeColor=#3700CC;fillColor=#6a00ff;fontColor=#ffffff;fontSize=29;" parent="VSI3icmYJTKuLkTzz5mK-1" vertex="1">
          <mxGeometry x="185" y="336" width="80" height="80" as="geometry" />
        </mxCell>
        <mxCell id="fU0B5mbKIqQJxSJaI-YO-223" value="CR48" style="ellipse;whiteSpace=wrap;html=1;aspect=fixed;strokeColor=#3700CC;fillColor=#6a00ff;fontColor=#ffffff;fontSize=29;" parent="VSI3icmYJTKuLkTzz5mK-1" vertex="1">
          <mxGeometry x="382" y="336" width="80" height="80" as="geometry" />
        </mxCell>
        <mxCell id="fU0B5mbKIqQJxSJaI-YO-225" style="edgeStyle=orthogonalEdgeStyle;rounded=1;jumpSize=1;orthogonalLoop=1;jettySize=auto;html=1;entryX=0;entryY=0.5;entryDx=0;entryDy=0;endArrow=none;endFill=0;endSize=6;strokeWidth=1;fontSize=29;fillColor=#6a00ff;strokeColor=#3700CC;" parent="VSI3icmYJTKuLkTzz5mK-1" source="fU0B5mbKIqQJxSJaI-YO-222" target="fU0B5mbKIqQJxSJaI-YO-223" edge="1">
          <mxGeometry relative="1" as="geometry" />
        </mxCell>
        <mxCell id="fU0B5mbKIqQJxSJaI-YO-244" style="edgeStyle=orthogonalEdgeStyle;rounded=1;jumpSize=1;orthogonalLoop=1;jettySize=auto;html=1;entryX=0;entryY=0.5;entryDx=0;entryDy=0;endArrow=block;endFill=1;endSize=6;strokeWidth=1;fontSize=29;dashed=1;" parent="VSI3icmYJTKuLkTzz5mK-1" source="fU0B5mbKIqQJxSJaI-YO-224" target="fU0B5mbKIqQJxSJaI-YO-157" edge="1">
          <mxGeometry relative="1" as="geometry" />
        </mxCell>
        <mxCell id="fU0B5mbKIqQJxSJaI-YO-224" value="CR49" style="ellipse;whiteSpace=wrap;html=1;aspect=fixed;strokeColor=#3700CC;fillColor=#6a00ff;fontColor=#ffffff;fontSize=29;" parent="VSI3icmYJTKuLkTzz5mK-1" vertex="1">
          <mxGeometry x="650" y="336" width="80" height="80" as="geometry" />
        </mxCell>
        <mxCell id="fU0B5mbKIqQJxSJaI-YO-226" style="edgeStyle=orthogonalEdgeStyle;rounded=1;jumpSize=1;orthogonalLoop=1;jettySize=auto;html=1;entryX=0;entryY=0.5;entryDx=0;entryDy=0;endArrow=none;endFill=0;endSize=6;strokeWidth=1;fontSize=29;fillColor=#6a00ff;strokeColor=#3700CC;" parent="VSI3icmYJTKuLkTzz5mK-1" source="fU0B5mbKIqQJxSJaI-YO-223" target="fU0B5mbKIqQJxSJaI-YO-224" edge="1">
          <mxGeometry relative="1" as="geometry" />
        </mxCell>
        <mxCell id="fU0B5mbKIqQJxSJaI-YO-229" value="&lt;h2 style=&quot;font-size: 29px;&quot;&gt;SWINg&lt;/h2&gt;" style="text;html=1;strokeColor=#6F0000;fillColor=#a20025;align=center;verticalAlign=middle;whiteSpace=wrap;rounded=0;fontSize=29;fontColor=#ffffff;" parent="VSI3icmYJTKuLkTzz5mK-1" vertex="1">
          <mxGeometry x="182" y="203" width="160" height="20" as="geometry" />
        </mxCell>
        <mxCell id="fU0B5mbKIqQJxSJaI-YO-230" value="&lt;h2 style=&quot;font-size: 29px;&quot;&gt;RIS COMEX&lt;/h2&gt;" style="text;html=1;strokeColor=#3700CC;fillColor=#6a00ff;align=center;verticalAlign=middle;whiteSpace=wrap;rounded=0;fontSize=29;fontColor=#ffffff;" parent="VSI3icmYJTKuLkTzz5mK-1" vertex="1">
          <mxGeometry x="161" y="325" width="211" height="20" as="geometry" />
        </mxCell>
        <mxCell id="fU0B5mbKIqQJxSJaI-YO-240" style="edgeStyle=orthogonalEdgeStyle;rounded=1;jumpSize=1;orthogonalLoop=1;jettySize=auto;html=1;entryX=0;entryY=0.5;entryDx=0;entryDy=0;endArrow=block;endFill=1;endSize=6;strokeWidth=1;fontSize=29;exitX=1;exitY=0.5;exitDx=0;exitDy=0;" parent="VSI3icmYJTKuLkTzz5mK-1" source="fU0B5mbKIqQJxSJaI-YO-236" target="fU0B5mbKIqQJxSJaI-YO-211" edge="1">
          <mxGeometry relative="1" as="geometry" />
        </mxCell>
        <mxCell id="fU0B5mbKIqQJxSJaI-YO-243" style="edgeStyle=orthogonalEdgeStyle;rounded=1;jumpSize=1;orthogonalLoop=1;jettySize=auto;html=1;entryX=0;entryY=0.5;entryDx=0;entryDy=0;endArrow=block;endFill=1;endSize=6;strokeWidth=1;fontSize=29;" parent="VSI3icmYJTKuLkTzz5mK-1" source="fU0B5mbKIqQJxSJaI-YO-236" target="fU0B5mbKIqQJxSJaI-YO-222" edge="1">
          <mxGeometry relative="1" as="geometry" />
        </mxCell>
        <mxCell id="fU0B5mbKIqQJxSJaI-YO-245" style="edgeStyle=orthogonalEdgeStyle;rounded=1;jumpSize=1;orthogonalLoop=1;jettySize=auto;html=1;entryX=0;entryY=0.5;entryDx=0;entryDy=0;endArrow=none;endFill=0;endSize=6;strokeWidth=1;fontSize=29;" parent="VSI3icmYJTKuLkTzz5mK-1" source="fU0B5mbKIqQJxSJaI-YO-236" target="fU0B5mbKIqQJxSJaI-YO-143" edge="1">
          <mxGeometry relative="1" as="geometry" />
        </mxCell>
        <mxCell id="fU0B5mbKIqQJxSJaI-YO-236" value="" style="ellipse;whiteSpace=wrap;html=1;aspect=fixed;fillColor=#1ba1e2;strokeColor=#006EAF;fontColor=#ffffff;fontSize=29;" parent="VSI3icmYJTKuLkTzz5mK-1" vertex="1">
          <mxGeometry x="35" y="100" width="80" height="80" as="geometry" />
        </mxCell>
        <mxCell id="fU0B5mbKIqQJxSJaI-YO-242" style="edgeStyle=orthogonalEdgeStyle;rounded=1;jumpSize=1;orthogonalLoop=1;jettySize=auto;html=1;entryX=0.5;entryY=0;entryDx=0;entryDy=0;endArrow=block;endFill=1;endSize=6;strokeWidth=1;fontSize=29;" parent="VSI3icmYJTKuLkTzz5mK-1" source="fU0B5mbKIqQJxSJaI-YO-239" target="fU0B5mbKIqQJxSJaI-YO-236" edge="1">
          <mxGeometry relative="1" as="geometry" />
        </mxCell>
        <mxCell id="fU0B5mbKIqQJxSJaI-YO-239" value="&lt;h2 style=&quot;font-size: 33px;&quot;&gt;Edition 1.2&lt;/h2&gt;" style="text;html=1;strokeColor=none;fillColor=none;align=center;verticalAlign=middle;whiteSpace=wrap;rounded=0;fontSize=33;" parent="VSI3icmYJTKuLkTzz5mK-1" vertex="1">
          <mxGeometry x="-33.75" y="-2" width="217.5" height="69" as="geometry" />
        </mxCell>
        <mxCell id="fU0B5mbKIqQJxSJaI-YO-259" style="edgeStyle=orthogonalEdgeStyle;rounded=1;jumpSize=1;orthogonalLoop=1;jettySize=auto;html=1;entryX=0;entryY=0.5;entryDx=0;entryDy=0;dashed=1;endArrow=none;endFill=0;endSize=6;strokeWidth=1;fontSize=29;" parent="VSI3icmYJTKuLkTzz5mK-1" source="fU0B5mbKIqQJxSJaI-YO-256" target="fU0B5mbKIqQJxSJaI-YO-201" edge="1">
          <mxGeometry relative="1" as="geometry" />
        </mxCell>
        <mxCell id="fU0B5mbKIqQJxSJaI-YO-256" value="CRxx" style="ellipse;whiteSpace=wrap;html=1;aspect=fixed;fillColor=#6a00ff;fontColor=#ffffff;strokeColor=#3700CC;fontSize=29;" parent="VSI3icmYJTKuLkTzz5mK-1" vertex="1">
          <mxGeometry x="1124" y="336" width="80" height="80" as="geometry" />
        </mxCell>
        <mxCell id="fU0B5mbKIqQJxSJaI-YO-257" style="edgeStyle=orthogonalEdgeStyle;rounded=1;jumpSize=1;orthogonalLoop=1;jettySize=auto;html=1;dashed=1;endArrow=none;endFill=0;endSize=6;strokeWidth=1;fontSize=29;" parent="VSI3icmYJTKuLkTzz5mK-1" source="fU0B5mbKIqQJxSJaI-YO-157" target="fU0B5mbKIqQJxSJaI-YO-256" edge="1">
          <mxGeometry relative="1" as="geometry" />
        </mxCell>
        <mxCell id="fU0B5mbKIqQJxSJaI-YO-261" value="&lt;h2 style=&quot;font-size: 29px;&quot;&gt;bijection EDIFACT&lt;/h2&gt;" style="text;html=1;strokeColor=#C73500;fillColor=#fa6800;align=center;verticalAlign=middle;whiteSpace=wrap;rounded=0;fontSize=29;fontColor=#ffffff;" parent="VSI3icmYJTKuLkTzz5mK-1" vertex="1">
          <mxGeometry x="1078" y="209" width="300" height="38" as="geometry" />
        </mxCell>
        <mxCell id="fU0B5mbKIqQJxSJaI-YO-263" value="" style="ellipse;whiteSpace=wrap;html=1;aspect=fixed;fontColor=#ffffff;fontSize=29;strokeColor=none;fillColor=#A9C4EB;" parent="VSI3icmYJTKuLkTzz5mK-1" vertex="1">
          <mxGeometry x="1486" y="100" width="80" height="80" as="geometry" />
        </mxCell>
        <mxCell id="fU0B5mbKIqQJxSJaI-YO-268" style="edgeStyle=orthogonalEdgeStyle;rounded=1;jumpSize=1;orthogonalLoop=1;jettySize=auto;html=1;entryX=0;entryY=0.5;entryDx=0;entryDy=0;endArrow=block;endFill=1;endSize=6;strokeWidth=1;fontSize=29;dashed=1;" parent="VSI3icmYJTKuLkTzz5mK-1" source="fU0B5mbKIqQJxSJaI-YO-192" target="fU0B5mbKIqQJxSJaI-YO-263" edge="1">
          <mxGeometry relative="1" as="geometry" />
        </mxCell>
      </root>
    </mxGraphModel>
  </diagram>
</mxfile>
